<svg
        width="100"
        height="100"
        viewBox="0 0 88 88"
        fill="none"
        xmlns="http://www.w3.org/2000/svg"
>
    <path
            d="M59.98 54.949a1.565 1.565 0 0 0-1.117.414A21.867 21.867 0 0 1 44 61.179a21.866 21.866 0 0 1-14.863-5.816 1.564 1.564 0 0 0-2.203.086 1.567 1.567 0 0 0 .086 2.21A24.992 24.992 0 0 0 44 64.31a24.992 24.992 0 0 0 16.98-6.65 1.567 1.567 0 0 0 .086-2.21 1.557 1.557 0 0 0-1.086-.5ZM61.188 36.754c4.508 0 7.813-4.383 7.813-9.375a1.568 1.568 0 0 0-1.563-1.563c-.863 0-1.563.704-1.563 1.563 0 3.64-2.292 6.25-4.687 6.25-2.395 0-4.688-2.61-4.688-6.25a1.568 1.568 0 0 0-1.563-1.563c-.862 0-1.562.703-1.562 1.563 0 4.992 3.305 9.375 7.813 9.375ZM26.812 36.754c4.508 0 7.812-4.383 7.812-9.375a1.568 1.568 0 0 0-1.563-1.563c-.862 0-1.561.704-1.561 1.563 0 3.64-2.294 6.25-4.688 6.25-2.395 0-4.688-2.61-4.688-6.25a1.568 1.568 0 0 0-1.563-1.563c-.862 0-1.562.703-1.562 1.563 0 4.992 3.305 9.375 7.813 9.375Z"
            fill="rgb(1,169,244)"
    />
    <path
            d="M25.25.25c-13.824 0-25 11.176-25 25v37.5c0 13.824 11.176 25 25 25h37.5c13.824 0 25-11.176 25-25v-37.5c0-13.824-11.176-25-25-25h-37.5Zm0 3.125h37.5A21.794 21.794 0 0 1 84.625 25.25v37.5A21.794 21.794 0 0 1 62.75 84.625h-37.5A21.794 21.794 0 0 1 3.375 62.75v-37.5A21.794 21.794 0 0 1 25.25 3.375Z"
            fill="rgb(1,169,244)"
    />
</svg>