<svg
        width="100"
        height="100"
        viewBox="0 0 88 88"
        fill="none"
        xmlns="http://www.w3.org/2000/svg"
>
          <path
            d="M44.164 58.07c-2.602-.082-5.172 1.18-7.531 3.59v-.004a1.57 1.57 0 0 0 .023 2.21 1.57 1.57 0 0 0 2.211-.023c1.969-2.011 3.64-2.703 5.2-2.656 1.558.047 3.253.895 5.097 2.688v-.004a1.557 1.557 0 0 0 2.211-.035c.285-.297.445-.7.438-1.114a1.559 1.559 0 0 0-.477-1.097c-2.18-2.118-4.57-3.477-7.172-3.559v.004ZM29.938 31.5c-4.297 0-7.813 3.516-7.813 7.813 0 4.296 3.516 7.812 7.813 7.812s7.813-3.516 7.813-7.813c0-4.296-3.516-7.812-7.813-7.812Zm0 3.125a4.666 4.666 0 0 1 4.688 4.688A4.666 4.666 0 0 1 29.938 44a4.666 4.666 0 0 1-4.688-4.688 4.666 4.666 0 0 1 4.688-4.687ZM58.062 31.5c-4.297 0-7.813 3.516-7.813 7.813 0 4.296 3.516 7.812 7.813 7.812s7.813-3.516 7.813-7.813c0-4.296-3.516-7.812-7.813-7.812Zm0 3.125a4.666 4.666 0 0 1 4.688 4.688A4.666 4.666 0 0 1 58.061 44a4.666 4.666 0 0 1-4.688-4.688 4.666 4.666 0 0 1 4.688-4.687ZM52.879 20.641c-.39.133-.719.418-.902.79a1.562 1.562 0 0 0 .703 2.093l12.5 6.25a1.562 1.562 0 0 0 1.39-2.797l-12.5-6.25a1.577 1.577 0 0 0-1.191-.086ZM35.121 20.641a1.576 1.576 0 0 0-1.191.086l-12.5 6.25a1.562 1.562 0 0 0 1.39 2.797l12.5-6.25a1.563 1.563 0 0 0-.199-2.883Z"
            fill="rgb(1,169,244)"
          />
          <path
            d="M25.25.25c-13.824 0-25 11.176-25 25v37.5c0 13.824 11.176 25 25 25h37.5c13.824 0 25-11.176 25-25v-37.5c0-13.824-11.176-25-25-25h-37.5Zm0 3.125h37.5A21.794 21.794 0 0 1 84.625 25.25v37.5A21.794 21.794 0 0 1 62.75 84.625h-37.5A21.794 21.794 0 0 1 3.375 62.75v-37.5A21.794 21.794 0 0 1 25.25 3.375Z"
            fill="rgb(1,169,244)"
          />
</svg>