<svg
        width="100"
        height="100"
        viewBox="0 0 88 88"
        fill="none"
        xmlns="http://www.w3.org/2000/svg"
>
    <path
            d="M26.812 25.25c-4.297 0-7.813 3.516-7.813 7.813 0 4.296 3.516 7.812 7.813 7.812s7.812-3.516 7.812-7.813c0-4.296-3.515-7.812-7.812-7.812Zm0 3.125a4.666 4.666 0 0 1 4.688 4.688 4.666 4.666 0 0 1-4.688 4.687 4.666 4.666 0 0 1-4.688-4.688 4.666 4.666 0 0 1 4.688-4.687ZM61.188 25.25c-4.297 0-7.813 3.516-7.813 7.813 0 4.296 3.516 7.812 7.813 7.812s7.813-3.516 7.813-7.813c0-4.296-3.516-7.812-7.813-7.812Zm0 3.125a4.666 4.666 0 0 1 4.688 4.688 4.666 4.666 0 0 1-4.688 4.687 4.666 4.666 0 0 1-4.688-4.688 4.666 4.666 0 0 1 4.688-4.687ZM31.5 59.625a1.562 1.562 0 1 0 0 3.125h25a1.564 1.564 0 0 0 1.105-2.668 1.564 1.564 0 0 0-1.105-.457h-25Z"
            fill="rgb(1,169,244)"
    />
    <path
            d="M25.25.25c-13.824 0-25 11.176-25 25v37.5c0 13.824 11.176 25 25 25h37.5c13.824 0 25-11.176 25-25v-37.5c0-13.824-11.176-25-25-25h-37.5Zm0 3.125h37.5A21.794 21.794 0 0 1 84.625 25.25v37.5A21.794 21.794 0 0 1 62.75 84.625h-37.5A21.794 21.794 0 0 1 3.375 62.75v-37.5A21.794 21.794 0 0 1 25.25 3.375Z"
            fill="rgb(1,169,244)"
    />
</svg>