<svg
  width="100"
  height="100"
  viewBox="0 0 88 88"
  fill="none"
  xmlns="http://www.w3.org/2000/svg"
>
  <path
    d="M26.812 25.25c-4.508 0-7.813 4.383-7.813 9.375a1.564 1.564 0 0 0 1.563 1.563 1.564 1.564 0 0 0 1.563-1.563c0-3.64 2.293-6.25 4.687-6.25 2.395 0 4.688 2.61 4.688 6.25a1.564 1.564 0 0 0 2.668 1.105c.293-.292.457-.69.457-1.105 0-4.992-3.305-9.375-7.813-9.375ZM61.188 25.25c-4.508 0-7.813 4.383-7.813 9.375a1.564 1.564 0 0 0 2.669 1.105c.293-.292.457-.69.457-1.105 0-3.64 2.293-6.25 4.687-6.25 2.395 0 4.688 2.61 4.688 6.25a1.564 1.564 0 0 0 2.668 1.105c.293-.292.457-.69.457-1.105 0-4.992-3.305-9.375-7.813-9.375ZM28.375 53.375c-.863 0-1.563.7-1.563 1.563 0 7.96 7.883 14.061 17.189 14.061 9.305 0 17.188-6.101 17.188-14.061 0-.864-.7-1.563-1.563-1.563H28.375ZM30.34 56.5h27.32c-1.004 5.137-6.45 9.375-13.66 9.375-7.211 0-12.656-4.238-13.66-9.375Z"
    fill="rgb(1,169,244)"
  />
  <path
    d="M25.25.25c-13.824 0-25 11.176-25 25v37.5c0 13.824 11.176 25 25 25h37.5c13.824 0 25-11.176 25-25v-37.5c0-13.824-11.176-25-25-25h-37.5Zm0 3.125h37.5A21.794 21.794 0 0 1 84.625 25.25v37.5A21.794 21.794 0 0 1 62.75 84.625h-37.5A21.794 21.794 0 0 1 3.375 62.75v-37.5A21.794 21.794 0 0 1 25.25 3.375Z"
    fill="rgb(1,169,244)"
  />
</svg>