<svg
        width="100"
        height="100"
        viewBox="0 0 88 88"
        fill="none"
        xmlns="http://www.w3.org/2000/svg"
>
    <path
            d="M52.68 17.602a1.562 1.562 0 0 0-.703 2.094s3.48 7.117 10.773 7.117a1.564 1.564 0 0 0 1.105-2.668 1.564 1.564 0 0 0-1.105-.457c-5.207 0-7.977-5.383-7.977-5.383a1.562 1.562 0 0 0-2.093-.703ZM35.32 17.602a1.562 1.562 0 0 0-2.094.703s-2.77 5.383-7.976 5.383a1.562 1.562 0 1 0 0 3.125c7.293 0 10.773-7.117 10.773-7.117a1.562 1.562 0 0 0-.703-2.094ZM44 50.25c-2.66 0-4.969 1.61-6.508 3.895-1.539 2.285-2.422 5.3-2.422 8.605 0 3.305.883 6.32 2.422 8.606C39.032 73.64 41.34 75.25 44 75.25s4.969-1.61 6.508-3.894c1.539-2.286 2.422-5.301 2.422-8.606 0-3.305-.883-6.32-2.422-8.605-1.54-2.286-3.848-3.895-6.508-3.895Zm0 3.125c1.406 0 2.785.84 3.914 2.516 1.129 1.675 1.89 4.125 1.89 6.859s-.765 5.188-1.89 6.86c-1.129 1.675-2.508 2.515-3.914 2.515-1.406 0-2.785-.84-3.914-2.516-1.129-1.675-1.89-4.125-1.89-6.859s.765-5.188 1.89-6.86c1.129-1.675 2.508-2.515 3.914-2.515ZM20.434 34.625a1.562 1.562 0 1 0 0 3.125h4.816v4.7a1.564 1.564 0 0 0 2.669 1.105c.292-.293.456-.692.456-1.106V37.75h4.688a1.564 1.564 0 0 0 1.105-2.668 1.564 1.564 0 0 0-1.105-.457H20.434ZM26.812 47.125c-.863 0-1.563.7-1.563 1.563v6.25a1.564 1.564 0 0 0 1.563 1.562 1.564 1.564 0 0 0 1.563-1.563v-6.25a1.564 1.564 0 0 0-1.563-1.562ZM26.812 59.625c-.863 0-1.563.7-1.563 1.563v6.25A1.564 1.564 0 0 0 26.813 69a1.564 1.564 0 0 0 1.563-1.563v-6.25a1.564 1.564 0 0 0-1.563-1.562ZM26.812 72.125c-.863 0-1.563.7-1.563 1.563v8.257a1.564 1.564 0 0 0 1.563 1.563 1.564 1.564 0 0 0 1.563-1.563v-8.257a1.564 1.564 0 0 0-1.563-1.563ZM53.254 34.625a1.562 1.562 0 1 0 0 3.125h4.809v4.7a1.564 1.564 0 0 0 2.668 1.105c.293-.293.457-.692.457-1.106V37.75h4.687a1.564 1.564 0 0 0 1.106-2.668 1.564 1.564 0 0 0-1.106-.457H53.254ZM59.625 47.125c-.863 0-1.563.7-1.563 1.563v6.25a1.564 1.564 0 0 0 1.563 1.562 1.564 1.564 0 0 0 1.563-1.563v-6.25a1.564 1.564 0 0 0-1.563-1.562ZM59.625 59.625c-.863 0-1.563.7-1.563 1.563v6.25A1.564 1.564 0 0 0 59.626 69a1.564 1.564 0 0 0 1.563-1.563v-6.25a1.564 1.564 0 0 0-1.563-1.562ZM59.625 72.125c-.863 0-1.563.7-1.563 1.563v8.257a1.564 1.564 0 0 0 1.563 1.563 1.564 1.564 0 0 0 1.563-1.563v-8.257a1.564 1.564 0 0 0-1.563-1.563Z"
            fill="rgb(1,169,244)"
    />
    <path
            d="M25.25.25c-13.824 0-25 11.176-25 25v37.5c0 13.824 11.176 25 25 25h37.5c13.824 0 25-11.176 25-25v-37.5c0-13.824-11.176-25-25-25h-37.5Zm0 3.125h37.5A21.794 21.794 0 0 1 84.625 25.25v37.5A21.794 21.794 0 0 1 62.75 84.625h-37.5A21.794 21.794 0 0 1 3.375 62.75v-37.5A21.794 21.794 0 0 1 25.25 3.375Z"
            fill="rgb(1,169,244)"
    />
</svg>